<svg width="371" height="113" viewBox="0 0 371 113" fill="none" xmlns="http://www.w3.org/2000/svg">
<path d="M370.641 17.4238H358.391V24.2038H363.851V90.7438H358.391V97.5238H370.641V17.4238Z" fill="black"/>
<path d="M352.06 11.9844H333.68V18.7744H345.27V95.5744H333.68V102.364H352.06V11.9844Z" fill="black"/>
<path d="M38.0664 81.1443H42.5747L62.1683 25.4844H72.6588L92.2524 81.1443H96.7607V85.9993H73.439V81.1443H80.895L75.9533 66.8392H53.8454L49.077 81.1443H56.533V85.9993H38.0664V81.1443ZM55.4059 61.8107H74.4794L65.2028 33.9808H64.7693L55.4059 61.8107Z" fill="black"/>
<path d="M115.172 86.6929C111.704 86.6929 109.247 85.9993 107.802 84.6122C106.415 83.225 105.722 80.9709 105.722 77.8498V46.2051H99.7396V40.9166H101.213C102.312 40.9166 103.236 40.8299 103.988 40.6565C104.739 40.4831 105.346 40.223 105.808 39.8762C106.271 39.4716 106.646 39.0092 106.935 38.4891C107.282 37.9111 107.6 37.2464 107.889 36.495L110.75 28.8656H116.125V40.9166H127.136V46.2051H116.125V80.7975H127.136V84.8723C126.153 85.3347 124.535 85.7393 122.281 86.086C120.027 86.4906 117.657 86.6929 115.172 86.6929Z" fill="black"/>
<path d="M131.824 81.1443H137.806V27.5652L131.824 26.4381V22.45L148.21 19.2422V47.8524H148.643C149.048 46.8698 149.597 45.9161 150.29 44.9914C151.042 44.0088 151.938 43.1418 152.978 42.3904C154.076 41.6391 155.319 41.0322 156.706 40.5698C158.151 40.1074 159.769 39.8762 161.561 39.8762C167.167 39.8762 171.127 41.2923 173.439 44.1244C175.808 46.8987 176.993 51.0891 176.993 56.6956V81.1443H182.975V85.9993H160.781V81.1443H166.59V57.2157C166.59 53.6322 165.867 51.0024 164.422 49.3263C163.035 47.5923 160.781 46.7253 157.66 46.7253C156.504 46.7253 155.377 46.8987 154.278 47.2455C153.18 47.5345 152.169 47.9969 151.244 48.6327C150.319 49.2685 149.568 50.0776 148.99 51.0602C148.47 52.0428 148.21 53.1988 148.21 54.5281V81.1443H154.018V85.9993H131.824V81.1443Z" fill="black"/>
<path d="M211.095 87.0397C207.627 87.0397 204.535 86.4617 201.819 85.3058C199.16 84.1498 196.877 82.5314 194.969 80.4507C193.12 78.37 191.704 75.8846 190.721 72.9947C189.796 70.1048 189.334 66.9259 189.334 63.458C189.334 59.8745 189.854 56.6378 190.895 53.7478C191.935 50.8579 193.38 48.4015 195.23 46.3785C197.137 44.2978 199.362 42.7083 201.905 41.6102C204.506 40.4542 207.367 39.8762 210.488 39.8762C213.609 39.8762 216.413 40.3964 218.898 41.4368C221.441 42.4193 223.58 43.8354 225.314 45.685C227.105 47.5345 228.464 49.7597 229.388 52.3607C230.313 54.9616 230.776 57.8226 230.776 60.9437V63.458H200.605V66.2323C200.605 70.5672 201.732 73.9484 203.986 76.3759C206.24 78.7456 209.275 79.9305 213.089 79.9305C216.499 79.9305 219.216 79.2369 221.239 77.8498C223.262 76.4048 224.793 74.5842 225.834 72.3878L229.822 74.7287C229.302 76.2314 228.521 77.7053 227.481 79.1502C226.441 80.5952 225.14 81.9246 223.58 83.1383C222.077 84.2943 220.285 85.248 218.204 85.9993C216.124 86.6929 213.754 87.0397 211.095 87.0397ZM200.605 58.6896H220.025V57.6492C220.025 53.6033 219.245 50.4822 217.684 48.2859C216.124 46.0895 213.754 44.9914 210.575 44.9914C207.338 44.9914 204.853 46.0606 203.119 48.1992C201.443 50.3377 200.605 53.4299 200.605 57.4758V58.6896Z" fill="black"/>
<path d="M238.021 81.1443H244.003V48.1992L238.021 47.0721V43.084L254.147 39.8762V48.0258H254.58C254.927 47.0432 255.476 46.0606 256.227 45.0781C256.979 44.0955 257.875 43.2285 258.915 42.4771C260.013 41.668 261.285 41.0322 262.73 40.5698C264.232 40.1074 265.909 39.8762 267.758 39.8762C273.365 39.8762 277.324 41.2923 279.636 44.1244C282.005 46.8987 283.19 51.0891 283.19 56.6956V81.1443H289.172V85.9993H266.978V81.1443H272.787V57.2157C272.787 53.6322 272.064 51.0024 270.619 49.3263C269.232 47.5923 266.978 46.7253 263.857 46.7253C262.701 46.7253 261.545 46.8987 260.389 47.2455C259.291 47.5345 258.279 47.9969 257.354 48.6327C256.487 49.2685 255.765 50.0776 255.187 51.0602C254.667 52.0428 254.407 53.1988 254.407 54.5281V81.1443H260.215V85.9993H238.021V81.1443Z" fill="black"/>
<path d="M314.752 87.0397C311.746 87.0397 309.29 86.4617 307.382 85.3058C305.533 84.1498 304.319 82.8782 303.741 81.4911H303.394V85.9993H296.372V72.4745H303.394V74.0351C303.394 76.4048 304.117 78.2833 305.562 79.6704C307.064 80.9998 309.55 81.6645 313.018 81.6645C316.139 81.6645 318.48 81.1732 320.04 80.1906C321.601 79.1502 322.381 77.5319 322.381 75.3355C322.381 72.041 320.127 69.8736 315.619 68.8332L310.764 67.7061C306.024 66.6658 302.498 64.9896 300.186 62.6777C297.874 60.3658 296.719 57.2735 296.719 53.401C296.719 49.124 298.163 45.8006 301.053 43.4308C303.943 41.0611 307.845 39.8762 312.758 39.8762C315.705 39.8762 318.046 40.3675 319.78 41.3501C321.572 42.3326 322.699 43.5464 323.161 44.9914H323.508V40.9166H330.531V54.4414H323.508V51.9272C323.508 49.7308 322.757 48.0836 321.254 46.9854C319.809 45.8295 317.439 45.2515 314.145 45.2515C311.544 45.2515 309.55 45.7428 308.163 46.7253C306.775 47.7079 306.082 49.1529 306.082 51.0602C306.082 54.5859 308.365 56.8689 312.931 57.9093L317.439 58.9497C322.179 60.0479 325.733 61.6662 328.103 63.8048C330.531 65.9433 331.744 69.0644 331.744 73.1681C331.744 75.2488 331.34 77.1562 330.531 78.8901C329.721 80.5663 328.565 82.0113 327.063 83.225C325.618 84.4388 323.855 85.3636 321.774 85.9993C319.693 86.6929 317.353 87.0397 314.752 87.0397Z" fill="black"/>
<path d="M12.25 17.4238H0V97.5238H12.25V90.7438H6.79V24.2038H12.25V17.4238Z" fill="black"/>
<path d="M36.9601 11.9844H18.5801V102.364H36.9601V95.5744H25.3701V18.7744H36.9601V11.9844Z" fill="black"/>
</svg>
